<?xml version="1.0" encoding="iso-8859-1"?>
<!-- Generator: Adobe Illustrator 19.0.0, SVG Export Plug-In . SVG Version: 6.00 Build 0)  -->
<svg version="1.1" id="Capa_1" xmlns="http://www.w3.org/2000/svg" xmlns:xlink="http://www.w3.org/1999/xlink" x="0px" y="0px"
	 viewBox="0 0 512.043 512.043" style="enable-background:new 0 0 512.043 512.043;" xml:space="preserve">
<path style="fill:#64B5F6;" d="M501.333,149.355H247.104c-5.891,0-10.667,4.776-10.667,10.667v288.832c0,2.865,1.154,5.61,3.2,7.616
	c2.095,1.932,4.831,3.019,7.68,3.051l164.757-0.811c1.285,0.532,2.662,0.807,4.053,0.811c1.508,0,2.998-0.32,4.373-0.939
	C478.656,432.384,512,393.536,512,352.021v-192C512,154.13,507.224,149.355,501.333,149.355z"/>
<path style="fill:#2196F3;" d="M245.333,298.688h192c0,15.979-21.333,15.979-21.333,32s21.333,15.979,21.333,32
	S416,378.667,416,394.688s21.333,16,21.333,32S416,442.731,416,458.688s21.333,16.021,21.333,32h-192v-0.277
	C114.837,487.467,0,431.509,0,362.688v-192L245.333,298.688z"/>
<path style="fill:#CFD8DC;" d="M256,21.355c-143.552,0-256,60.907-256,138.667s112.448,138.667,256,138.667s256-60.907,256-138.667
	S399.552,21.355,256,21.355z"/>
<path style="fill:#FAFAFA;" d="M256,213.355c-60.821,0-106.667-22.933-106.667-53.333S195.179,106.688,256,106.688
	s106.667,22.933,106.667,53.333S316.821,213.355,256,213.355z"/>
<path d="M256,298.688c-143.552,0-256-60.907-256-138.667S112.448,21.355,256,21.355s256,60.907,256,138.667
	S399.552,298.688,256,298.688z M256,42.688c-127.189,0-234.667,53.739-234.667,117.333S128.811,277.355,256,277.355
	s234.667-53.739,234.667-117.333S383.189,42.688,256,42.688z"/>
<path d="M256,213.355c-60.821,0-106.667-22.933-106.667-53.333S195.179,106.688,256,106.688s106.667,22.933,106.667,53.333
	S316.821,213.355,256,213.355z M256,128.021c-52.096,0-85.333,18.944-85.333,32c0,13.056,33.237,32,85.333,32
	s85.333-18.944,85.333-32S308.096,128.021,256,128.021z"/>
<path d="M416.171,459.52c-5.891,0.011-10.675-4.756-10.686-10.647c-0.008-4.205,2.456-8.022,6.291-9.747
	c50.133-22.592,78.933-54.336,78.933-87.104v-192c0-5.891,4.776-10.667,10.667-10.667c5.891,0,10.667,4.776,10.667,10.667v192
	c0,41.515-33.323,80.363-91.456,106.56C419.198,459.206,417.693,459.526,416.171,459.52z"/>
<path d="M245.333,490.411h-0.235C107.648,487.317,0,426.517,0,352.021v-192c0-5.891,4.776-10.667,10.667-10.667
	s10.667,4.776,10.667,10.667v192c0,61.867,100.587,114.261,224.235,117.056c5.891,0.065,10.614,4.893,10.549,10.784
	S251.224,490.475,245.333,490.411z"/>
<path d="M437.333,490.688h-192c-5.891,0-10.667-4.776-10.667-10.667c0-5.891,4.776-10.667,10.667-10.667h170.88
	c-6.766-5.016-10.793-12.911-10.88-21.333c0.454-10.199,6.086-19.46,14.933-24.555c5.376-4.032,6.4-5.248,6.4-7.509
	c0-2.261-1.024-3.435-6.4-7.467c-13.549-6.99-18.867-23.64-11.877-37.189c2.629-5.097,6.781-9.248,11.877-11.878
	c5.376-4.011,6.4-5.205,6.4-7.424s-1.024-3.413-6.4-7.467c-8.835-5.087-14.465-14.328-14.933-24.512
	c0.047-8.412,4.045-16.313,10.795-21.333H245.333c-5.891,0-10.667-4.776-10.667-10.667c0-5.891,4.776-10.667,10.667-10.667h192
	c5.891,0,10.667,4.776,10.667,10.667c-0.468,10.184-6.098,19.425-14.933,24.512c-5.376,4.011-6.4,5.205-6.4,7.445
	s1.024,3.413,6.4,7.467c13.549,6.964,18.888,23.593,11.924,37.143c-2.633,5.122-6.802,9.292-11.924,11.924
	c-5.376,4.011-6.4,5.205-6.4,7.424c0,2.219,1.024,3.435,6.4,7.488c13.549,7.143,18.743,23.917,11.601,37.466
	c-2.608,4.948-6.652,8.992-11.601,11.601c-5.376,4.032-6.4,5.248-6.4,7.509c0,2.261,1.024,3.456,6.4,7.509
	c8.835,5.087,14.465,14.328,14.933,24.512C448,485.912,443.224,490.688,437.333,490.688z"/>
<g>
</g>
<g>
</g>
<g>
</g>
<g>
</g>
<g>
</g>
<g>
</g>
<g>
</g>
<g>
</g>
<g>
</g>
<g>
</g>
<g>
</g>
<g>
</g>
<g>
</g>
<g>
</g>
<g>
</g>
</svg>
